<svg xmlns="http://www.w3.org/2000/svg" xmlns:xlink="http://www.w3.org/1999/xlink" version="1.1" width="1000" height="1000" viewBox="0 0 1000 1000" xml:space="preserve">
<desc>Created with Fabric.js 3.5.0</desc>
<defs>
</defs>
<rect x="0" y="0" width="100%" height="100%" fill="rgba(255,255,255,0)"/>
<g transform="matrix(37.8788 0 0 37.8788 500.0001 500.0001)" id="224793">
<path style="stroke: none; stroke-width: 1; stroke-dasharray: none; stroke-linecap: butt; stroke-dashoffset: 0; stroke-linejoin: miter; stroke-miterlimit: 4; is-custom-font: none; font-file-url: none; fill: rgb(255,255,255); fill-rule: nonzero; opacity: 1;" vector-effect="non-scaling-stroke" transform=" translate(-12, -12)" d="M 19 0 h -14 c -2.761 0 -5 2.239 -5 5 v 14 c 0 2.761 2.239 5 5 5 h 14 c 2.762 0 5 -2.239 5 -5 v -14 c 0 -2.761 -2.238 -5 -5 -5 z m -11 19 h -3 v -11 h 3 v 11 z m -1.5 -12.268 c -0.966 0 -1.75 -0.79 -1.75 -1.764 s 0.784 -1.764 1.75 -1.764 s 1.75 0.79 1.75 1.764 s -0.783 1.764 -1.75 1.764 z m 13.5 12.268 h -3 v -5.604 c 0 -3.368 -4 -3.113 -4 0 v 5.604 h -3 v -11 h 3 v 1.765 c 1.396 -2.586 7 -2.777 7 2.476 v 6.759 z" stroke-linecap="round"/>
</g>
</svg>